<?xml version="1.0" standalone="no"?>
<!DOCTYPE svg PUBLIC "-//W3C//DTD SVG 1.1//EN" "http://www.w3.org/Graphics/SVG/1.1/DTD/svg11.dtd">
<svg xmlns="http://www.w3.org/2000/svg" id="Calque_1" version="1.1" viewBox="0 0 841.89 595.28" width="841.8900146484375" height="595.280029296875">
  <!-- Generator: Adobe Illustrator 29.8.2, SVG Export Plug-In . SVG Version: 2.1.1 Build 3)  -->
  <defs>
    <style>
      .st0 {
        fill: #fff;
      }
    </style>
  </defs>
  <path class="st0" d="M438.44,301.66c3.06,2.37,7.41,3.56,13.06,3.56,2.32,0,4.51-.11,6.57-.32,4.32-.53,8.91-1.55,13.77-3.08,4.85-1.53,8.81-2.9,11.87-4.12l3.4,13.69c-1.64,1.48-4.42,3.15-8.35,5.02s-8.47,3.49-13.61,4.87-10.3,2.06-15.47,2.06c-9.5,0-17.08-1.58-22.75-4.75-5.67-3.16-9.76-7.95-12.26-14.36-2.51-6.41-3.76-14.7-3.76-24.88,0-9.39,1.27-17.08,3.8-23.07,2.53-5.99,6.66-10.47,12.38-13.45,5.72-2.98,13.36-4.47,22.91-4.47,10.81,0,19.44,2.39,25.87,7.16,6.43,4.77,9.92,12.25,10.44,22.43.1,1.21.16,2.98.16,5.3,0,2.85-.11,5.49-.32,7.91-.21,2.43-.37,3.96-.47,4.59l-51.75,3.01c-.05,6.23,1.45,10.52,4.51,12.9ZM464.55,268.51c0-8.44-4.96-12.66-14.87-12.66-4.91,0-8.68,1.32-11.32,3.96-2.64,2.64-4.14,6.65-4.51,12.03l30.62-1.19c.05-.47.08-1.19.08-2.14Z"/>
  <path class="st0" d="M717.79,300.31c-1.11.95-2.91,1.95-5.42,3.01-2.51,1.06-4.84,1.58-7,1.58s-3.63-.74-4.71-2.22c-1.08-1.47-1.81-3.63-2.18-6.45-.37-2.82-.55-6.58-.55-11.27v-43.52l-22.39-2.14v6.88c-2.27-2.06-5.25-3.89-8.94-5.5-3.69-1.61-7.31-2.41-10.84-2.41-11.34,0-19.45,3.77-24.33,11.32-4.88,7.54-7.32,17.78-7.32,30.7,0,7.23.84,13.95,2.49,20.15-1.12.91-2.85,1.87-5.21,2.87-2.48,1.06-4.8,1.58-6.96,1.58s-3.63-.74-4.71-2.22c-1.08-1.47-1.81-3.63-2.18-6.45-.37-2.82-.55-6.58-.55-11.27v-46.84l-20.73,2.14h-9.5v16.77h7.83v33.79c0,3.11.15,6.05.45,8.8-1.24,1.16-3.74,3.12-5.19,3.9-1.71.92-3.57,1.38-5.58,1.38s-3.6-.59-4.63-1.78c-1.03-1.19-1.73-3.05-2.1-5.58-.37-2.53-.58-6.12-.63-10.76v-15.27c0-10.92-2.08-19.19-6.25-24.81-4.17-5.62-11.05-8.43-20.65-8.43-3.91,0-7.62.79-11.16,2.37-3.53,1.58-6.51,3.31-8.94,5.18-2.43,1.87-3.64,2.99-3.64,3.36v-9.89l-22.31,2.14v79.92h22.31v-57.45c0-.16.74-.87,2.22-2.14,1.48-1.27,3.33-2.43,5.58-3.48,2.24-1.05,4.68-1.58,7.32-1.58,4.85,0,8.25,1.69,10.21,5.06,1.95,3.38,2.93,8.62,2.93,15.75v16.38c0,8.7,1.6,15.79,4.79,21.24,3.19,5.46,9.09,8.19,17.69,8.19,3.8,0,7.28-.84,10.44-2.53,3.16-1.69,5.79-3.55,7.87-5.58,1.53-1.5,2.5-2.5,2.9-3,1.22,2.43,2.85,4.58,4.88,6.45,3.4,3.11,8.27,4.67,14.6,4.67,4.32,0,8.65-1.11,12.98-3.32,4.07-2.09,7.5-4.74,10.32-7.95,4.17,7.56,11.42,11.35,21.77,11.35,1.27,0,2.22-.03,2.85-.08,4.91-.21,9.22-1.57,12.94-4.07,3.72-2.5,6.87-5.76,9.46-9.77,3.32,9.23,10.21,13.85,20.65,13.85,4.32,0,8.65-1.11,12.98-3.32,4.32-2.22,7.97-5.06,10.92-8.55l-4.75-11.16ZM675.54,294.93c-1.64,2.69-3.83,4.96-6.57,6.81-2.74,1.85-5.57,2.77-8.47,2.77l-1.11-.08c-4.27-.47-7.48-2.87-9.61-7.2-2.14-4.32-3.26-9.55-3.36-15.67,0-3.53.43-7.17,1.3-10.92.87-3.74,2.41-6.99,4.63-9.73,2.22-2.74,5.22-4.11,9.02-4.11,5.33,0,10.05,2.19,14.16,6.57v31.57Z"/>
  <path class="st0" d="M569.19,229.54l28.21,1.7c3.28.21,7.71-1.9,9.83-4.39l18.18-21.17-.05-.1-28.07-1.68c-3.29-.19-7.71,1.93-9.85,4.41l-18.3,21.13.04.1Z"/>
  <path class="st0" d="M378.91,285.07l-12.37-30-.07-.13c-1.12-2.02-2.35-3.89-3.64-5.56-1.35-1.72-2.98-3.22-4.85-4.44-1.85-1.21-4.02-2.19-6.44-2.9-2.41-.71-5.19-1.26-8.43-1.07s-24.15,1.42-24.15,1.42l2.01,5.04s4.26.17,10.43.9,10.35,9.25,10.37,9.29l31.08,64.37h9.4l35.08-82.63-20.26,1.96-18.18,43.77Z"/>
  <g>
    <path class="st0" d="M273.39,282.19l-6.12,15.99-8.94,23.26h-23.03l13.39-34.78s3.43-1.11,11.48-2.64c6.47-1.23,13.22-1.83,13.22-1.83Z"/>
    <path class="st0" d="M334.05,304.67l-36.16-92.18h-20.65l-22.58,58.67c.19.04.38.08.57.12.4.08.8.17,1.2.25.4.08.81.16,1.22.25.41.08.82.16,1.24.24.42.08.84.16,1.26.24.42.08.85.16,1.28.23.43.08.86.15,1.3.23s.88.15,1.32.22c.44.07.89.15,1.34.22.45.07.91.15,1.37.22.46.07.92.14,1.39.21.47.07.94.14,1.41.21.47.07.95.14,1.43.21.48.07.97.14,1.45.2.49.07.98.14,1.48.2.5.07,1,.13,1.5.2.29.04.58.07.86.11l8.96-23.15,2.29-10.6h.24l2.29,10.6,13.37,33.87,7.36,19.7,6.41,16.3h25.56l-8.7-16.77Z"/>
    <path class="st0" d="M293.45,276.71c-.59-.06-1.18-.12-1.76-.19-.58-.06-1.16-.12-1.74-.19-.57-.06-1.15-.12-1.71-.19-.57-.06-1.13-.13-1.69-.19-.56-.06-1.11-.13-1.66-.19-.55-.06-1.1-.13-1.64-.19-.54-.06-1.08-.13-1.61-.19-.53-.06-1.06-.13-1.59-.19-.53-.06-1.05-.13-1.57-.19-.52-.06-1.03-.13-1.54-.2-.22-.03-.44-.06-.66-.09-.29-.04-.58-.07-.86-.11-.5-.07-1-.13-1.5-.2-.5-.07-.99-.13-1.48-.2-.49-.07-.97-.14-1.45-.2-.48-.07-.96-.14-1.43-.21-.47-.07-.94-.14-1.41-.21-.47-.07-.93-.14-1.39-.21-.46-.07-.91-.14-1.37-.22-.45-.07-.9-.15-1.34-.22-.44-.07-.89-.15-1.32-.22s-.87-.15-1.3-.23c-.43-.08-.86-.15-1.28-.23-.42-.08-.84-.16-1.26-.24-.42-.08-.83-.16-1.24-.24-.41-.08-.82-.16-1.22-.25-.4-.08-.8-.17-1.2-.25-.19-.04-.38-.08-.57-.12-.2-.04-.41-.09-.61-.13-.39-.09-.78-.17-1.16-.26-.38-.09-.76-.18-1.14-.27-.38-.09-.75-.18-1.12-.27-.37-.09-.74-.18-1.1-.28s-.73-.19-1.08-.28c-.36-.1-.71-.19-1.06-.29-.35-.1-.7-.2-1.05-.3-.35-.1-.69-.2-1.03-.3-.34-.1-.68-.21-1.01-.31-.33-.1-.66-.21-.99-.32-.33-.11-.65-.22-.97-.33-.32-.11-.64-.22-.96-.33-.32-.11-.63-.23-.94-.34-.31-.11-.62-.23-.92-.35-.3-.12-.61-.24-.91-.36-.3-.12-.6-.24-.89-.37-.29-.12-.59-.25-.87-.37-.29-.13-.57-.25-.86-.38-.28-.13-.56-.26-.84-.39-.28-.13-.55-.27-.83-.4-.27-.14-.54-.27-.81-.41-.27-.14-.53-.28-.8-.42-.26-.14-.52-.28-.78-.43-.26-.14-.51-.29-.77-.44-.25-.15-.5-.3-.75-.45-.25-.15-.49-.3-.74-.46-.24-.15-.48-.31-.72-.47-.24-.16-.47-.32-.71-.48-.23-.16-.46-.33-.69-.49s-.46-.33-.68-.5c-.22-.17-.45-.34-.67-.51-.22-.17-.44-.35-.65-.53-.22-.18-.43-.36-.64-.54-.21-.18-.42-.36-.63-.55-.21-.19-.41-.37-.62-.56-.2-.19-.4-.38-.6-.57-.2-.19-.4-.39-.59-.59-.19-.2-.39-.4-.58-.6-.19-.2-.38-.41-.57-.61-.19-.21-.37-.41-.56-.63-.18-.21-.36-.42-.54-.64-.18-.22-.36-.43-.53-.65-.18-.22-.35-.44-.52-.67-.17-.22-.34-.45-.51-.68-.17-.23-.34-.46-.5-.69-.17-.23-.33-.47-.49-.71-.16-.24-.32-.48-.48-.72-.16-.24-.32-.49-.47-.74-.16-.25-.31-.5-.46-.75-.15-.25-.3-.51-.45-.77-.15-.26-.3-.52-.44-.78-.15-.26-.29-.53-.43-.8-.14-.27-.28-.54-.42-.81-.14-.27-.28-.55-.41-.83-.14-.28-.27-.56-.41-.85-.13-.28-.27-.57-.4-.86-.13-.29-.26-.58-.39-.88-.13-.3-.26-.59-.38-.9-.13-.3-.25-.61-.37-.91-.12-.31-.25-.62-.37-.93-.12-.31-.24-.63-.36-.95-.12-.32-.24-.64-.35-.97-.12-.32-.23-.65-.35-.98-.11-.33-.23-.66-.34-1-.11-.34-.22-.68-.33-1.02-.11-.34-.22-.69-.33-1.04-.11-.35-.21-.7-.32-1.06-.11-.36-.21-.71-.31-1.07-.1-.36-.21-.73-.31-1.09s-.2-.74-.3-1.11c-.1-.37-.2-.75-.3-1.13-.1-.38-.2-.76-.29-1.15-.1-.39-.19-.78-.29-1.17-.1-.39-.19-.79-.28-1.19-.09-.4-.19-.8-.28-1.21-.09-.41-.18-.82-.28-1.23-.09-.41-.18-.83-.27-1.25-.09-.42-.18-.85-.27-1.27-.09-.43-.18-.86-.26-1.29-.09-.43-.17-.87-.26-1.32-.09-.44-.17-.89-.26-1.34s-.17-.9-.25-1.36c-.08-.46-.17-.92-.25-1.38-.08-.46-.17-.93-.25-1.4-.08-.47-.17-.95-.25-1.42-.08-.48-.16-.96-.25-1.45-.08-.49-.16-.98-.24-1.47-.08-.49-.16-.99-.24-1.49-.08-.5-.16-1.01-.24-1.52-.08-.51-.16-1.02-.24-1.54s-.16-1.04-.24-1.56c-.08-.52-.16-1.05-.24-1.59-.08-.53-.16-1.07-.24-1.61s-.16-1.08-.24-1.63c-.08-.55-.16-1.1-.24-1.66s-.16-1.12-.24-1.68c-.08-.56-.16-1.13-.24-1.71-.08-.57-.16-1.15-.24-1.73-.08-.58-.16-1.17-.24-1.76-.08-.59-.16-1.18-.24-1.78-.06.6-.12,1.2-.19,1.79-.06.59-.12,1.18-.19,1.76-.06.58-.12,1.16-.19,1.74-.06.57-.12,1.15-.19,1.71-.06.57-.13,1.13-.19,1.69-.06.56-.13,1.11-.19,1.66-.06.55-.13,1.1-.19,1.64-.06.54-.13,1.08-.19,1.62-.06.53-.13,1.06-.19,1.59-.06.53-.13,1.05-.19,1.57-.06.52-.13,1.03-.2,1.54-.07.51-.13,1.02-.2,1.52-.07.5-.13,1-.2,1.5-.07.5-.13.99-.2,1.48s-.14.97-.2,1.45c-.07.48-.14.96-.21,1.43-.07.47-.14.94-.21,1.41-.07.47-.14.93-.21,1.39-.07.46-.14.91-.22,1.37-.07.45-.15.9-.22,1.34-.07.44-.15.89-.22,1.32-.08.44-.15.87-.23,1.3-.08.43-.15.86-.23,1.28s-.16.84-.24,1.26c-.08.42-.16.83-.24,1.24-.08.41-.16.82-.25,1.22-.08.4-.17.8-.25,1.2-.08.4-.17.79-.26,1.18-.09.39-.17.78-.26,1.16-.09.38-.18.76-.27,1.14-.09.38-.18.75-.27,1.12-.09.37-.18.74-.28,1.1-.09.36-.19.73-.28,1.08-.1.36-.19.71-.29,1.06-.1.35-.2.7-.3,1.05s-.2.69-.3,1.03c-.1.34-.21.68-.31,1.01-.1.33-.21.66-.32.99-.11.33-.22.65-.33.97-.11.32-.22.64-.33.96-.11.32-.23.63-.34.94-.11.31-.23.62-.35.92-.12.3-.24.61-.36.91-.12.3-.24.6-.37.89-.12.29-.25.59-.37.87-.13.29-.25.57-.38.86-.13.28-.26.56-.39.84-.13.28-.27.55-.4.83-.14.27-.27.54-.41.81-.14.27-.28.53-.42.8-.14.26-.28.52-.43.78-.14.26-.29.51-.44.77-.15.25-.3.5-.45.75s-.3.49-.46.74c-.15.24-.31.48-.47.72-.16.24-.32.47-.48.71-.16.23-.33.46-.49.69s-.33.46-.5.68c-.17.22-.34.45-.51.67-.17.22-.35.44-.53.65-.18.22-.36.43-.54.64s-.36.42-.55.63-.37.41-.56.62c-.19.2-.38.4-.57.6-.19.2-.39.4-.59.59-.2.19-.4.39-.6.58s-.41.38-.61.57c-.21.19-.41.37-.63.56-.21.18-.42.36-.64.54-.22.18-.43.36-.65.53s-.44.35-.67.52c-.22.17-.45.34-.68.51-.23.17-.46.34-.69.5-.23.17-.47.33-.71.49-.24.16-.48.32-.72.48-.24.16-.49.32-.74.47-.25.16-.5.31-.75.46-.25.15-.51.3-.77.45-.26.15-.52.3-.78.44-.26.15-.53.29-.8.43-.27.14-.54.28-.81.42-.27.14-.55.28-.83.41-.28.14-.56.27-.85.41-.29.13-.57.27-.86.4-.29.13-.58.26-.88.39-.3.13-.59.26-.9.38-.3.13-.61.25-.91.37-.31.12-.62.25-.93.37-.31.12-.63.24-.95.36-.32.12-.64.24-.97.35-.32.12-.65.23-.98.35-.33.11-.66.23-1,.34-.34.11-.68.22-1.02.33-.34.11-.69.22-1.04.33-.35.11-.7.21-1.06.32-.36.11-.71.21-1.07.31-.36.1-.73.21-1.09.31-.37.1-.74.2-1.11.3-.37.1-.75.2-1.13.3-.38.1-.76.2-1.15.29-.39.1-.78.19-1.17.29-.39.1-.79.19-1.19.28-.4.09-.8.19-1.21.28-.41.09-.82.18-1.23.28-.41.09-.83.18-1.25.27-.42.09-.85.18-1.27.27-.43.09-.86.18-1.29.26-.43.09-.87.17-1.32.26s-.89.17-1.34.26-.9.17-1.36.25c-.46.08-.92.17-1.38.25-.46.08-.93.17-1.4.25-.47.08-.95.17-1.42.25s-.96.16-1.45.25c-.49.08-.98.16-1.47.24-.49.08-.99.16-1.49.24-.5.08-1.01.16-1.52.24-.51.08-1.02.16-1.54.24-.52.08-1.04.16-1.56.24-.52.08-1.05.16-1.59.24-.53.08-1.07.16-1.61.24s-1.08.16-1.63.24c-.55.08-1.1.16-1.66.24-.56.08-1.12.16-1.68.24-.56.08-1.13.16-1.71.24-.57.08-1.15.16-1.73.24s-1.17.16-1.76.24c-.59.08-1.18.16-1.78.24.6.06,1.2.12,1.79.19.59.06,1.18.12,1.76.19.58.06,1.16.12,1.74.19.57.06,1.15.12,1.71.19.57.06,1.13.13,1.69.19.56.06,1.11.13,1.66.19.55.06,1.1.13,1.64.19.54.06,1.08.13,1.62.19.53.06,1.06.13,1.59.19.53.06,1.05.13,1.57.19.52.06,1.03.13,1.54.2.51.07,1.02.13,1.52.2.5.07,1,.13,1.5.2.5.07.99.13,1.48.2.49.07.97.14,1.45.2.48.07.96.14,1.43.21.47.07.94.14,1.41.21.47.07.93.14,1.39.21.46.07.91.14,1.37.22.45.07.9.15,1.34.22.44.07.89.15,1.32.22.44.08.87.15,1.3.23.43.08.86.15,1.28.23s.84.16,1.26.24c.42.08.83.16,1.24.24.41.08.82.16,1.22.25.4.08.8.17,1.2.25.4.08.79.17,1.18.26.39.09.78.17,1.16.26.38.09.76.18,1.14.27.38.09.75.18,1.12.27.37.09.74.18,1.1.28.36.09.73.19,1.08.28.36.1.71.19,1.06.29.35.1.7.2,1.05.3.35.1.69.2,1.03.3.34.1.68.21,1.01.31.33.1.66.21.99.32.33.11.65.22.97.33.32.11.64.22.96.33.32.11.63.23.94.34.31.11.62.23.92.35.3.12.61.24.91.36.3.12.6.24.89.37.29.12.59.25.87.37.29.13.57.25.86.38.28.13.56.26.84.39.28.13.55.27.83.4.27.14.54.27.81.41.27.14.53.28.8.42.26.14.52.28.78.43.26.14.51.29.77.44s.5.3.75.45c.25.15.49.3.74.46.24.15.48.31.72.47.24.16.47.32.71.48.23.16.47.33.69.49.23.17.46.33.68.5.22.17.45.34.67.51.22.17.44.35.65.53.22.18.43.36.64.54s.42.36.63.55c.21.19.41.37.62.56.2.19.4.38.6.57.2.19.4.39.59.59.19.2.39.4.58.6.19.2.38.41.57.61.19.21.37.41.56.63.18.21.36.42.54.64.18.22.36.43.53.65.18.22.35.44.52.67.17.22.34.45.51.68.17.23.34.46.5.69.17.23.33.47.49.71.16.24.32.48.48.72.16.24.32.49.47.74.16.25.31.5.46.75.15.25.3.51.45.77.15.26.3.52.44.78.15.26.29.53.43.8.14.27.28.54.42.81.14.27.28.55.41.83.14.28.27.56.41.85.13.28.27.57.4.86.13.29.26.58.39.88.13.3.26.59.38.9.13.3.25.61.37.91.12.31.25.62.37.93.12.31.24.63.36.95.12.32.24.64.35.97.12.32.23.65.35.98.11.33.23.66.34,1,.11.34.22.68.33,1.02.11.34.22.69.33,1.04.11.35.21.7.32,1.06.11.36.21.71.31,1.08.1.36.21.73.31,1.09.1.37.2.74.3,1.11.1.37.2.75.3,1.13.1.38.2.76.29,1.15.1.39.19.78.29,1.17.1.39.19.79.28,1.19.09.4.19.8.28,1.21.09.41.18.82.28,1.23.09.41.18.83.27,1.25.09.42.18.85.27,1.27.09.43.18.86.26,1.29.09.43.17.87.26,1.32.09.44.17.89.26,1.34.09.45.17.9.26,1.36.08.46.17.92.25,1.38.08.46.17.93.25,1.4s.17.95.25,1.42.16.96.25,1.45c.08.49.16.98.24,1.47.08.49.16.99.24,1.49.08.5.16,1.01.24,1.52.08.51.16,1.02.24,1.54.08.52.16,1.04.24,1.56.08.52.16,1.05.24,1.59.08.53.16,1.07.24,1.61.08.54.16,1.08.24,1.63.08.55.16,1.1.24,1.66.08.56.16,1.12.24,1.68.08.56.16,1.13.24,1.71.08.57.16,1.15.24,1.73.08.58.16,1.17.24,1.76.08.59.16,1.18.24,1.78.06-.6.12-1.2.19-1.79s.12-1.18.19-1.76c.06-.58.12-1.16.19-1.74.06-.57.12-1.15.19-1.71.06-.57.13-1.13.19-1.69.06-.56.13-1.11.19-1.66.06-.55.13-1.1.19-1.64.06-.54.13-1.08.19-1.61.06-.53.13-1.06.19-1.59.06-.53.13-1.05.19-1.57.06-.52.13-1.03.2-1.54.07-.51.13-1.02.2-1.52.07-.5.13-1,.2-1.5.07-.5.13-.99.2-1.48.07-.49.14-.97.2-1.45.07-.48.14-.96.21-1.43.07-.47.14-.94.21-1.41.07-.47.14-.93.21-1.39.07-.46.14-.91.22-1.37.07-.45.15-.9.22-1.34.07-.44.15-.89.22-1.32.08-.44.15-.87.23-1.3.08-.43.15-.86.23-1.28.08-.42.16-.84.24-1.26.08-.42.16-.83.24-1.24.08-.41.16-.82.25-1.22.08-.4.17-.8.25-1.2.08-.4.17-.79.26-1.18.09-.39.17-.78.26-1.16s.18-.76.27-1.14c.09-.38.18-.75.27-1.12.09-.37.18-.74.28-1.1s.19-.73.28-1.08c.1-.36.19-.71.29-1.06.1-.35.2-.7.3-1.05.1-.35.2-.69.3-1.03.1-.34.21-.68.31-1.01.1-.33.21-.66.32-.99.11-.33.22-.65.33-.97.11-.32.22-.64.33-.96.11-.32.23-.63.34-.94.11-.31.23-.62.35-.92.12-.3.24-.61.36-.91.12-.3.24-.6.37-.89.12-.29.25-.59.37-.87.13-.29.25-.57.38-.86.13-.28.26-.56.39-.84s.27-.55.4-.83c.14-.27.27-.54.41-.81.14-.27.28-.53.42-.8.14-.26.28-.52.43-.78.14-.26.29-.51.44-.77.15-.25.3-.5.45-.75s.3-.49.46-.74c.15-.24.31-.48.47-.72.16-.24.32-.47.48-.71.16-.23.33-.47.49-.69.17-.23.33-.46.5-.68.17-.22.34-.45.51-.67.17-.22.35-.44.53-.65.18-.22.36-.43.54-.64.18-.21.36-.42.55-.63.19-.21.37-.41.56-.62.19-.2.38-.4.57-.6.19-.2.39-.4.59-.59.2-.19.4-.39.6-.58.2-.19.41-.38.61-.57.21-.19.41-.37.63-.56.21-.18.42-.36.64-.54.22-.18.43-.36.65-.53.22-.18.44-.35.67-.52.22-.17.45-.34.68-.51.23-.17.46-.34.69-.5.23-.17.47-.33.71-.49.24-.16.48-.32.72-.48s.49-.32.74-.47c.25-.16.5-.31.75-.46.25-.15.51-.3.77-.45.26-.15.52-.3.78-.44.26-.15.53-.29.8-.43.27-.14.54-.28.81-.42.27-.14.55-.28.83-.41.28-.14.56-.27.85-.41.28-.13.57-.27.86-.4.29-.13.58-.26.88-.39.3-.13.59-.26.9-.38.3-.13.61-.25.91-.37.31-.12.62-.25.93-.37.31-.12.63-.24.95-.36.32-.12.64-.24.97-.35.32-.12.65-.23.98-.35.33-.11.66-.23,1-.34.34-.11.68-.22,1.02-.33.34-.11.69-.22,1.04-.33.35-.11.7-.21,1.06-.32.18-.06.37-.11.56-.16l1.61-.46c.37-.1.74-.2,1.11-.3.37-.1.75-.2,1.13-.3.38-.1.76-.2,1.15-.29.39-.1.78-.19,1.17-.29.39-.1.79-.19,1.19-.28.4-.09.8-.19,1.21-.28.41-.09.82-.18,1.23-.28.41-.09.83-.18,1.25-.27.42-.09.85-.18,1.27-.27.43-.09.86-.18,1.29-.26.43-.09.87-.17,1.32-.26.44-.09.89-.17,1.34-.26.45-.09.9-.17,1.36-.26.46-.08.92-.17,1.38-.25s.93-.17,1.4-.25c.47-.08.95-.17,1.42-.25.48-.08.96-.16,1.45-.25.49-.08.98-.16,1.47-.24.09-.01.18-.03.27-.04.41-.07.81-.13,1.23-.2.5-.08,1.01-.16,1.52-.24.51-.08,1.02-.16,1.54-.24.52-.08,1.04-.16,1.56-.24.52-.08,1.05-.16,1.59-.24.53-.08,1.07-.16,1.61-.24.54-.08,1.08-.16,1.63-.24.55-.08,1.1-.16,1.66-.24.56-.08,1.12-.16,1.68-.24.56-.08,1.13-.16,1.71-.24.57-.08,1.15-.16,1.73-.24s1.17-.16,1.76-.24c.59-.08,1.18-.16,1.78-.24-.6-.06-1.2-.12-1.79-.19Z"/>
  </g>
</svg>